<?xml version="1.0" encoding="iso-8859-1"?>
<!-- Uploaded to: SVG Repo, www.svgrepo.com, Generator: SVG Repo Mixer Tools -->
<svg fill="#000000" height="800px" width="800px" version="1.1" id="Layer_1" xmlns="http://www.w3.org/2000/svg" xmlns:xlink="http://www.w3.org/1999/xlink" 
	 viewBox="0 0 512 512" xml:space="preserve">
<g>
	<g>
		<path d="M486.4,51.2H268.8V12.8C268.8,5.726,263.074,0,256,0c-7.074,0-12.8,5.726-12.8,12.8v38.4H25.6C11.46,51.2,0,62.66,0,76.8
			v281.6C0,372.54,11.46,384,25.6,384h130.671l-40.303,110.822c-2.423,6.647,1.015,13.986,7.646,16.401
			c1.459,0.529,2.935,0.776,4.386,0.776c5.222,0,10.138-3.226,12.023-8.422L183.509,384H243.2v76.8c0,7.074,5.726,12.8,12.8,12.8
			c7.074,0,12.8-5.726,12.8-12.8V384h59.691l43.486,119.578C373.862,508.774,378.778,512,384,512c1.451,0,2.927-0.247,4.378-0.776
			c6.639-2.415,10.078-9.754,7.646-16.401L355.729,384H486.4c14.14,0,25.6-11.46,25.6-25.6V76.8C512,62.66,500.54,51.2,486.4,51.2z
			 M486.4,358.4H25.6V76.8h460.8V358.4z"/>
	</g>
</g>
<g>
	<g>
		<path d="M384,307.2H128c-7.074,0-12.8,5.726-12.8,12.8c0,7.074,5.726,12.8,12.8,12.8h256c7.074,0,12.8-5.726,12.8-12.8
			C396.8,312.926,391.074,307.2,384,307.2z"/>
	</g>
</g>
</svg>